<?xml version="1.0" encoding="utf-8"?>
<!-- Generator: Adobe Illustrator 19.0.0, SVG Export Plug-In . SVG Version: 6.00 Build 0)  -->
<svg version="1.1" xmlns="http://www.w3.org/2000/svg" xmlns:xlink="http://www.w3.org/1999/xlink" x="0px" y="0px" width="200px"
	 height="217.5px" viewBox="0 0 200 217.5" style="enable-background:new 0 0 200 217.5;" xml:space="preserve">
<style type="text/css">
	.st0{fill:#F0534B;}
	.st1{fill:#FFFFFF;}
</style>
<g id="Layer_1">
</g>
<g id="Layer_2">
	<path class="st0" d="M70.321,175.994l2.375,34.375c3.605,3.938,14.355,5.908,26.131,5.908c12.35,0,24.787-2.033,26.537-5.908
		l2.606-34.375l8.672-13.488c-22.312-0.241-47.672,1.612-75.086-0.262L70.321,175.994z"/>
	<path class="st0" d="M97.648,170.81c-8.263,0-26.838-0.737-35.616-7.562l-0.578-1.307l0,0L51.016,58.412l96.223,0.27
		l-10.535,104.083l-0.4,0.382c-5.263,5.031-22.605,7.663-38.654,7.663C97.649,170.81,97.649,170.81,97.648,170.81z"/>
	<path class="st1" d="M105.619,147.545c8.428,0.164,18.091-0.743,26.752-3.614l-0.901,8.371c-6.602,2.973-18.5,3.835-25.851,3.765
		C105.619,155.974,105.619,147.545,105.619,147.545z M76.846,115.962l-0.834-14.843c-5.291-0.749-6.375-0.125-13.397-2.348
		l4.167,44.806c9.014,3.395,21.115,5.045,29.731,4.389c5.034,0,9.248-4.87,9.248-9.927v-9.997c-0.094-5.034-4.144-8.428-9.178-9.084
		C96.605,118.935,80.638,117.367,76.846,115.962z"/>
	<path class="st1" d="M50.614,55.244l0.446,4.701c2.674,1.407,6.99,2.501,13.31,3.43c9.292,1.366,21.616,2.119,34.7,2.119
		s25.408-0.752,34.7-2.119c6.435-0.946,10.876-2.093,13.537-3.538l0.431-4.189C145.192,53.973,53.176,53.592,50.614,55.244z
		 M99.071,62.494c-26.762,0-48.457-3.19-48.457-7.125s21.695-7.125,48.457-7.125s48.456,3.19,48.456,7.125
		S125.832,62.494,99.071,62.494z"/>
	<path class="st0" d="M132.696,50.144c-3.941-0.479-8.45-0.864-13.341-1.144l4.07-16.755l24.25-25.812
		c0.75-0.938-5.44-6.311-6.315-5.624l-25.093,26.755l-5.273,21.071c-3.816-0.119-7.779-0.181-11.819-0.181
		c-12.651,0-24.555,0.601-33.52,1.691c-13.333,1.623-15.043,3.656-15.043,5.246c0,1.591,1.71,3.624,15.043,5.246
		c8.965,1.09,20.869,1.691,33.52,1.691s24.555-0.601,33.52-1.691c13.333-1.623,15.043-3.656,15.043-5.246
		C147.739,53.799,146.029,51.766,132.696,50.144z"/>
	<path class="st1" d="M118.335,52.947l-0.346,1.423c-0.375,1.312-9.25,1.312-8.407-0.336l0.309-1.237
		c-2.115,0.484-3.527,1.345-3.527,2.329c0,1.515,3.337,2.744,7.453,2.744c4.116,0,7.453-1.229,7.453-2.744
		C121.271,54.236,120.116,53.448,118.335,52.947z"/>
	<path class="st1" d="M61.365,161.992c0,0,0,0.003-0.001,0.011c0,0.009,0,0.012,0,0.012S61.366,161.992,61.365,161.992z"/>
	<path class="st1" d="M136.848,162.119c-4.572,4.37-21.884,7.191-39.2,7.191c-14.607,0-29.333-2.141-36.092-7.066l0.384,3.774
		c4.838,2.629,15.351,6.291,35.708,6.291c8.754,0,17.613-0.721,24.946-2.031c6.231-1.113,10.906-2.552,13.965-4.289L136.848,162.119
		z"/>
</g>
</svg>
